<?xml version="1.0" encoding="UTF-8" standalone="no"?>
<!-- Created with Inkscape (http://www.inkscape.org/) -->

<svg
   width="240mm"
   height="240mm"
   viewBox="0 0 240 240"
   version="1.1"
   id="svg28808"
   inkscape:version="1.1.1 (3bf5ae0d25, 2021-09-20)"
   sodipodi:docname="Springville_Clarkia.svg"
   xmlns:inkscape="http://www.inkscape.org/namespaces/inkscape"
   xmlns:sodipodi="http://sodipodi.sourceforge.net/DTD/sodipodi-0.dtd"
   xmlns="http://www.w3.org/2000/svg"
   xmlns:svg="http://www.w3.org/2000/svg">
  <sodipodi:namedview
     id="namedview28810"
     pagecolor="#ffffff"
     bordercolor="#666666"
     borderopacity="1.0"
     inkscape:pageshadow="2"
     inkscape:pageopacity="0.0"
     inkscape:pagecheckerboard="0"
     inkscape:document-units="mm"
     showgrid="false"
     inkscape:zoom="0.90583672"
     inkscape:cx="557.49561"
     inkscape:cy="498.4342"
     inkscape:window-width="1920"
     inkscape:window-height="1137"
     inkscape:window-x="3832"
     inkscape:window-y="458"
     inkscape:window-maximized="1"
     inkscape:current-layer="layer1"
     fit-margin-top="20"
     fit-margin-left="20"
     fit-margin-right="20"
     fit-margin-bottom="20" />
  <defs
     id="defs28805">
    <clipPath
       clipPathUnits="userSpaceOnUse"
       id="clipPath28916">
      <path
         style="fill:none;stroke:#000000;stroke-width:0.264583px;stroke-linecap:butt;stroke-linejoin:miter;stroke-opacity:1"
         d="M 107.78018,212.93158 C 101.50631,192.40691 86.616937,176.18799 76.234766,158.01919 72.157315,150.88364 70.472049,141.37365 62.798754,136.98891 51.083422,130.29443 38.879219,135.76535 29.500809,123.26081 22.15585,113.46753 10.784265,65.345485 23.366978,56.957008 40.972023,45.220311 57.612478,71.671765 65.427537,67.764237 71.363705,64.796154 77.645988,62.62442 83.244857,59.00162 96.089655,50.69028 104.97398,30.486906 122.96872,31.545419 c 21.19983,1.24705 19.61686,22.152927 29.20872,26.579938 8.94662,4.129212 21.02241,1.209818 28.62455,8.178443 20.08381,18.410161 18.1669,76.16347 6.13383,98.72548 -3.75587,7.04225 -44.00125,46.9976 -49.65483,50.53109 -12.8931,8.05819 -23.35084,9.67115 -29.50081,-2.62879 z"
         id="path28918" />
    </clipPath>
  </defs>
  <g
     inkscape:label="Layer 1"
     inkscape:groupmode="layer"
     id="layer1"
     transform="translate(19.548124,-6.1555503)">
    <circle
       style="fill:none;fill-rule:evenodd;stroke:#000000;stroke-width:0.328853;stroke-opacity:1"
       id="path29022"
       cx="100.45187"
       cy="126.15555"
       r="99.835571"
       inkscape:label="Outer Circle" />
    <path
       id="circle29148"
       style="fill:none;fill-rule:evenodd;stroke:#000000;stroke-width:0.932183;stroke-opacity:1"
       d="m 365.98438,194.4082 a 282.99847,282.99847 0 0 0 -162.5879,61.28125 c 1.09448,1.59762 2.19656,3.18015 3.2793,4.79883 1.92097,2.8718 3.82465,5.77233 5.7168,8.68945 3.7843,5.83425 7.52254,11.73319 11.2539,17.58789 1.86569,2.92736 3.72963,5.84407 5.59766,8.73633 1.86803,2.89226 3.74033,5.75949 5.62109,8.58985 1.88077,2.83036 3.76994,5.62358 5.67383,8.36523 1.90389,2.74165 3.82236,5.43247 5.75977,8.05859 1.9374,2.62614 3.89369,5.18806 5.875,7.67188 0.99065,1.24191 1.98666,2.46471 2.99023,3.66602 1.00358,1.2013 2.01346,2.37977 3.03125,3.5371 1.0178,1.15735 2.04481,2.29231 3.07813,3.40235 1.03331,1.11004 2.07486,2.19648 3.125,3.25586 1.05013,1.05938 2.10753,2.09229 3.17578,3.09765 1.06825,1.00537 2.14671,1.98168 3.23437,2.92969 1.08767,0.94801 2.18459,1.86661 3.29297,2.75391 1.10838,0.8873 2.22703,1.74512 3.35742,2.56836 1.1304,0.82323 2.27208,1.61332 3.42579,2.36914 1.1537,0.75582 2.31973,1.47705 3.49804,2.16211 1.17832,0.68506 2.37,1.33241 3.57422,1.94336 1.20422,0.61094 2.42092,1.18527 3.65235,1.71875 1.23141,0.53348 2.47834,1.0278 3.73828,1.48047 1.25993,0.45266 2.53448,0.86392 3.82422,1.23242 0.78623,0.22464 1.55722,0.39796 2.31445,0.52148 0.75723,0.12352 1.49934,0.19737 2.22851,0.22266 0.72917,0.0253 1.44442,0.002 2.14649,-0.0684 0.70206,-0.0701 1.39049,-0.18709 2.0664,-0.34961 0.67592,-0.16252 1.33952,-0.37095 1.99024,-0.62305 0.65072,-0.25209 1.28953,-0.54793 1.91601,-0.88672 0.62649,-0.33878 1.24055,-0.71999 1.84375,-1.14257 0.6032,-0.42259 1.19453,-0.88713 1.77539,-1.39063 0.58088,-0.50349 1.15145,-1.04543 1.71094,-1.62695 0.5595,-0.58152 1.10936,-1.20272 1.64844,-1.85938 0.53908,-0.65666 1.06828,-1.34921 1.58789,-2.07812 0.51961,-0.72892 1.02819,-1.49274 1.5293,-2.29102 0.5011,-0.79828 0.99496,-1.63133 1.47851,-2.49609 0.48355,-0.86476 0.95688,-1.76306 1.42383,-2.69141 0.46695,-0.92835 0.9276,-1.88594 1.37891,-2.875 0.45131,-0.98906 0.89346,-2.00781 1.33008,-3.05469 0.87324,-2.09375 1.71884,-4.30166 2.53906,-6.60937 0.82021,-2.30771 1.61579,-4.71628 2.39062,-7.21484 0.77484,-2.49857 1.52854,-5.08758 2.26563,-7.75391 0.73709,-2.66634 1.45708,-5.4097 2.16406,-8.2207 0.70698,-2.81101 1.40142,-5.68851 2.08594,-8.6211 0.68452,-2.93258 1.35961,-5.9201 2.02929,-8.95117 1.3394,-6.06214 2.65648,-12.29772 3.98243,-18.61523 1.32594,-6.31752 2.66154,-12.71734 4.03515,-19.10547 0.68681,-3.19407 1.38161,-6.38542 2.0918,-9.5625 0.71019,-3.17708 1.43458,-6.33958 2.17578,-9.47656 0.74121,-3.137 1.49944,-6.24845 2.2793,-9.32227 0.77986,-3.07382 1.58204,-6.1101 2.4082,-9.09766 0.82616,-2.98755 1.67654,-5.92649 2.55664,-8.80468 0.8801,-2.8782 1.78879,-5.69568 2.73047,-8.44141 0.8712,-2.54024 1.77878,-5.00232 2.70899,-7.41016 z m 133.08007,25.85352 c 0.005,0.42047 0.0273,0.82853 0.0312,1.25 0.033,3.54555 0.0162,7.12607 -0.0371,10.72266 -0.0533,3.59657 -0.14295,7.20938 -0.25781,10.82226 -0.11486,3.61288 -0.25446,7.22586 -0.40625,10.82031 -0.30357,7.18891 -0.65565,14.30611 -0.95898,21.21289 -0.15167,3.4534 -0.29164,6.85478 -0.40625,10.18555 -0.11462,3.33077 -0.2049,6.59026 -0.25782,9.76367 -0.0529,3.17341 -0.0686,6.26087 -0.0351,9.24219 0.0335,2.98132 0.11724,5.85683 0.26172,8.61133 0.0722,1.37725 0.15905,2.72503 0.26367,4.03906 0.10462,1.31403 0.22515,2.59532 0.36523,3.8418 0.14008,1.24647 0.2999,2.45824 0.47852,3.63281 0.17862,1.17457 0.37742,2.31182 0.59765,3.41016 0.22025,1.09833 0.46161,2.15608 0.72657,3.17382 0.26495,1.01775 0.55249,1.99491 0.86523,2.92774 0.31275,0.93282 0.65005,1.82246 1.01367,2.66601 0.36362,0.84356 0.75431,1.64068 1.17188,2.39063 0.41757,0.74995 0.86328,1.45152 1.33789,2.10351 0.47461,0.65201 0.97894,1.25498 1.51367,1.80469 0.53473,0.54972 1.09933,1.04716 1.69727,1.49024 0.59793,0.44308 1.22836,0.83195 1.89258,1.16406 1.06446,0.53224 2.11598,1.00406 3.15429,1.41797 1.03831,0.4139 2.06292,0.77064 3.07617,1.07031 1.01325,0.29967 2.01461,0.54289 3.00391,0.73242 0.9893,0.18954 1.96714,0.32471 2.93359,0.40821 0.96646,0.0835 1.92247,0.11415 2.86719,0.0957 0.94472,-0.0185 1.87864,-0.0868 2.80274,-0.20313 0.92409,-0.1163 1.8376,-0.28018 2.74218,-0.49023 0.90458,-0.21005 1.79938,-0.46592 2.68555,-0.76563 0.88617,-0.2997 1.76394,-0.64403 2.63281,-1.02929 0.86887,-0.38527 1.72936,-0.81062 2.58203,-1.27735 0.85268,-0.46672 1.69757,-0.97349 2.53516,-1.51757 0.83759,-0.54409 1.66662,-1.1268 2.49023,-1.74414 0.82362,-0.61736 1.64238,-1.27051 2.45313,-1.95704 0.81075,-0.68652 1.61507,-1.4066 2.41406,-2.1582 0.79899,-0.7516 1.59252,-1.53312 2.38086,-2.3457 0.78834,-0.81258 1.57082,-1.65593 2.34961,-2.52539 0.77879,-0.86946 1.55386,-1.76526 2.32422,-2.6875 0.77036,-0.92225 1.5358,-1.87087 2.29883,-2.8418 1.52606,-1.94186 3.03956,-3.97586 4.54297,-6.08789 1.5034,-2.11203 2.99671,-4.30135 4.48632,-6.55078 1.48961,-2.24943 2.9743,-4.56002 4.45899,-6.91406 2.96937,-4.7081 5.93856,-9.59155 8.9414,-14.52149 1.50143,-2.46497 3.01206,-4.94279 4.53516,-7.41406 0.69407,-1.12614 1.40166,-2.24078 2.10156,-3.36328 a 282.99847,282.99847 0 0 0 -86.6504,-62.60547 z M 105.51562,407.12305 a 282.99847,282.99847 0 0 0 -8.853511,69.68554 282.99847,282.99847 0 0 0 282.998051,282.99805 282.99847,282.99847 0 0 0 60.57422,-6.83398 c -0.14252,-1.15316 -0.26947,-2.31107 -0.42383,-3.46094 -0.35785,-2.66572 -0.7496,-5.32127 -1.18946,-7.9668 -0.43985,-2.64553 -0.9271,-5.28051 -1.47461,-7.90234 -0.5475,-2.62183 -1.15514,-5.23157 -1.83593,-7.82617 -0.3404,-1.29731 -0.6996,-2.59102 -1.07813,-3.88086 -0.37852,-1.28984 -0.7774,-2.57549 -1.19726,-3.85743 -0.41986,-1.28192 -0.85982,-2.56039 -1.32422,-3.83398 -0.4644,-1.27359 -0.9527,-2.54183 -1.46485,-3.80664 -0.51214,-1.26481 -1.04823,-2.52566 -1.61132,-3.78125 -0.5631,-1.25559 -1.15229,-2.50603 -1.76954,-3.75195 -0.61724,-1.24593 -1.26289,-2.48683 -1.9375,-3.72266 -0.6746,-1.23583 -1.37811,-2.46612 -2.11328,-3.69141 -0.79624,-1.32707 -1.64679,-2.62187 -2.54687,-3.88476 -0.90008,-1.2629 -1.85155,-2.49545 -2.84961,-3.69727 -0.99806,-1.20181 -2.04262,-2.37374 -3.13281,-3.51758 -1.0902,-1.14382 -2.22586,-2.25869 -3.40235,-3.34765 -1.17648,-1.08897 -2.39346,-2.15031 -3.65039,-3.1875 -1.25693,-1.0372 -2.55324,-2.05054 -3.88476,-3.03906 -1.33153,-0.98853 -2.69934,-1.95352 -4.09961,-2.89649 -1.40027,-0.94296 -2.8337,-1.86316 -4.29688,-2.76367 -1.46317,-0.90051 -2.95633,-1.78143 -4.47656,-2.64258 -1.52023,-0.86115 -3.06724,-1.70245 -4.63867,-2.52734 -1.57144,-0.8249 -3.16641,-1.63208 -4.78321,-2.42383 -1.61679,-0.79175 -3.25384,-1.56838 -4.91015,-2.33008 -1.65631,-0.7617 -3.33151,-1.50938 -5.02149,-2.24414 -1.68998,-0.73476 -3.39548,-1.45705 -5.11328,-2.16797 -3.4356,-1.42184 -6.92179,-2.79943 -10.43359,-4.14453 -3.5118,-1.3451 -7.04863,-2.65797 -10.58984,-3.95117 -3.54123,-1.2932 -7.0855,-2.56592 -10.60938,-3.83203 -3.52388,-1.26612 -7.02853,-2.5252 -10.48828,-3.78906 -3.45976,-1.26387 -6.87575,-2.53193 -10.22461,-3.81836 -3.34886,-1.28644 -6.63108,-2.59196 -9.82227,-3.92578 -1.59559,-0.66692 -3.16744,-1.34002 -4.71484,-2.02344 -1.5474,-0.68343 -3.06913,-1.37705 -4.5625,-2.08008 -1.49337,-0.70303 -2.95909,-1.41683 -4.39258,-2.14258 -1.43348,-0.72574 -2.83537,-1.46328 -4.20312,-2.21484 -1.36776,-0.75156 -2.70187,-1.5164 -3.99805,-2.29688 -1.29618,-0.78048 -2.55468,-1.57617 -3.77344,-2.38867 -1.24373,-0.82915 -2.42906,-1.70448 -3.5625,-2.61914 -1.13344,-0.91466 -2.21495,-1.8692 -3.25195,-2.85937 -1.037,-0.99019 -2.02801,-2.0146 -2.98242,-3.07032 -0.95441,-1.05571 -1.87214,-2.14265 -2.75782,-3.2539 -0.88566,-1.11126 -1.73953,-2.2475 -2.57031,-3.4043 -0.83078,-1.1568 -1.63799,-2.33303 -2.42773,-3.52539 -1.57949,-2.38472 -3.0914,-4.83181 -4.58985,-7.29883 -1.49844,-2.46702 -2.98352,-4.95443 -4.51171,-7.42383 -0.7641,-1.2347 -1.53972,-2.46524 -2.33204,-3.68554 -0.79231,-1.22031 -1.60116,-2.43103 -2.43554,-3.62696 -0.83438,-1.19593 -1.69369,-2.3775 -2.58399,-3.53906 -0.89029,-1.16156 -1.81142,-2.30272 -2.77148,-3.41992 -0.96007,-1.1172 -1.95827,-2.21059 -3.00195,-3.27344 -1.04369,-1.06285 -2.13229,-2.09524 -3.27344,-3.09375 -0.88777,-0.7768 -1.78868,-1.53742 -2.69922,-2.28516 -0.91055,-0.74773 -1.83211,-1.48227 -2.76367,-2.20312 -1.86313,-1.44171 -3.7665,-2.8324 -5.70313,-4.17969 -1.93663,-1.34729 -3.90628,-2.65153 -5.90234,-3.92187 -1.99606,-1.27034 -4.01718,-2.50594 -6.0586,-3.7168 -2.0414,-1.21086 -4.10308,-2.39756 -6.17578,-3.56641 -2.07269,-1.16884 -4.15815,-2.32054 -6.24804,-3.46484 -4.1798,-2.2886 -8.37884,-4.54462 -12.54297,-6.83984 -2.08207,-1.14762 -4.15585,-2.305 -6.21289,-3.48047 -2.05704,-1.17547 -4.0973,-2.36905 -6.11524,-3.58985 -2.01793,-1.2208 -4.01376,-2.46835 -5.97851,-3.75195 -1.96475,-1.2836 -3.89939,-2.60293 -5.79688,-3.9668 -1.89749,-1.36386 -3.75806,-2.77278 -5.57422,-4.23437 -0.90807,-0.7308 -1.80435,-1.47587 -2.68945,-2.23438 -0.8851,-0.7585 -1.75877,-1.52996 -2.61914,-2.31836 -0.86037,-0.78839 -1.70714,-1.59358 -2.54102,-2.41406 -0.83387,-0.82047 -1.65335,-1.65698 -2.45898,-2.51172 -0.80563,-0.85473 -1.59743,-1.72796 -2.37305,-2.61914 -0.77561,-0.89117 -1.53545,-1.80066 -2.27929,-2.73047 -0.43885,-0.54855 -0.85971,-1.10632 -1.26368,-1.67187 -0.40396,-0.56555 -0.79117,-1.13903 -1.1621,-1.7207 -0.7419,-1.16335 -1.42,-2.35748 -2.04102,-3.58008 -0.62102,-1.22261 -1.18611,-2.47318 -1.70117,-3.74805 -0.51506,-1.27487 -0.98029,-2.57437 -1.4043,-3.89453 -0.42401,-1.32016 -0.80643,-2.66107 -1.1543,-4.01953 -0.34786,-1.35846 -0.66062,-2.73523 -0.94726,-4.125 -0.28664,-1.38977 -0.54679,-2.79293 -0.78711,-4.20703 -0.24033,-1.41411 -0.461,-2.83809 -0.66992,-4.26953 -0.41785,-2.8629 -0.78823,-5.75417 -1.16992,-8.64454 -0.38171,-2.89036 -0.77538,-5.78062 -1.24024,-8.64257 -0.23243,-1.43098 -0.48223,-2.85419 -0.75781,-4.26758 -0.27559,-1.4134 -0.5765,-2.81625 -0.91016,-4.20508 -0.33365,-1.38883 -0.70078,-2.76381 -1.10742,-4.12109 -0.40664,-1.35728 -0.85313,-2.69688 -1.34766,-4.01563 -0.33892,-0.90379 -0.69153,-1.78573 -1.05664,-2.64844 -0.36511,-0.86271 -0.74292,-1.70529 -1.13281,-2.52929 -0.38989,-0.82401 -0.79181,-1.6303 -1.20508,-2.41797 -0.41327,-0.78767 -0.8382,-1.55684 -1.27344,-2.31055 -0.87045,-1.50742 -1.78253,-2.95012 -2.73242,-4.33594 -0.94989,-1.38582 -1.93702,-2.71485 -2.95508,-3.99804 -1.01804,-1.2832 -2.06762,-2.52115 -3.14257,-3.72071 -1.07495,-1.19955 -2.17434,-2.3612 -3.29493,-3.49609 -0.79948,-0.8097 -1.61968,-1.5919 -2.4375,-2.37695 z"
       transform="scale(0.26458333)"
       inkscape:label="Outline" />
    <path
       id="circle29282"
       style="fill:none;fill-rule:evenodd;stroke:none;stroke-width:0.316366"
       inkscape:label="Text Path"
       d="m 4.407196,126.15555 c -1.1e-6,53.04401 43.000664,96.04468 96.044674,96.04468"
       sodipodi:nodetypes="cc" />
  </g>
</svg>
