<?xml version="1.0" encoding="UTF-8" standalone="no"?>
<!-- Created with Inkscape (http://www.inkscape.org/) -->

<svg
   width="210mm"
   height="297mm"
   viewBox="0 0 210 297"
   version="1.1"
   id="svg833"
   inkscape:version="1.1.1 (3bf5ae0d25, 2021-09-20)"
   sodipodi:docname="Little_Sur_Manzanita_vectors.svg"
   xmlns:inkscape="http://www.inkscape.org/namespaces/inkscape"
   xmlns:sodipodi="http://sodipodi.sourceforge.net/DTD/sodipodi-0.dtd"
   xmlns="http://www.w3.org/2000/svg"
   xmlns:svg="http://www.w3.org/2000/svg">
  <sodipodi:namedview
     id="namedview835"
     pagecolor="#ffffff"
     bordercolor="#666666"
     borderopacity="1.0"
     inkscape:pageshadow="2"
     inkscape:pageopacity="0.0"
     inkscape:pagecheckerboard="0"
     inkscape:document-units="mm"
     showgrid="false"
     inkscape:zoom="1.8116734"
     inkscape:cx="455.38008"
     inkscape:cy="449.03236"
     inkscape:window-width="1920"
     inkscape:window-height="1137"
     inkscape:window-x="3832"
     inkscape:window-y="458"
     inkscape:window-maximized="1"
     inkscape:current-layer="layer1" />
  <defs
     id="defs830">
    <clipPath
       clipPathUnits="userSpaceOnUse"
       id="clipPath941">
      <path
         style="fill:none;stroke:#000000;stroke-width:0.264583px;stroke-linecap:butt;stroke-linejoin:miter;stroke-opacity:1"
         d="M 104.09458,172.66481 C 88.626876,160.77411 59.710548,148.59956 64.646037,123.92211 67.181894,111.24282 78.39402,106.02848 82.408207,94.387342 85.713726,84.801332 79.429618,71.398014 89.843533,65.05911 106.51248,54.912794 137.7347,63.607029 151.80459,75.59249 c 6.95734,5.926622 10.39587,14.393487 10.73991,23.338663 0.21622,5.621647 0.0904,11.591737 -2.47844,16.729487 -5.41544,10.83088 -16.15551,6.48365 -22.30598,14.87065 -1.83941,2.50828 -3.19018,5.51199 -4.13073,8.46801 -2.53604,7.97039 -0.27204,16.9975 -3.71767,24.57789 -3.09716,6.81376 -20.51914,17.03457 -25.8171,9.08762 z"
         id="path943" />
    </clipPath>
  </defs>
  <g
     inkscape:label="Layer 1"
     inkscape:groupmode="layer"
     id="layer1">
    <circle
       style="fill:none;fill-rule:evenodd;stroke:#000000;stroke-width:0.900384;stroke-opacity:1"
       id="path1429"
       cx="112.03532"
       cy="118.9999"
       r="49.549809"
       inkscape:label="outer circle" />
    <path
       id="circle1555"
       style="display:inline;fill:none;fill-rule:evenodd;stroke:#000000;stroke-width:2.55227"
       inkscape:label="outline"
       d="m 316.84766,358.50391 a 140.45615,140.45615 0 0 0 -32.70899,74.32226 c 2.34983,-1.30089 4.70554,-2.58389 6.9961,-3.89062 1.27023,-0.72465 2.52209,-1.45828 3.74609,-2.20703 0.612,-0.37438 1.21776,-0.75138 1.81445,-1.13477 0.5967,-0.38339 1.18479,-0.77358 1.76367,-1.16797 0.57889,-0.39439 1.14845,-0.79379 1.70704,-1.20117 0.55858,-0.40738 1.10679,-0.82178 1.64257,-1.24414 0.53579,-0.42237 1.05983,-0.85363 1.57032,-1.29297 0.51049,-0.43934 1.00754,-0.88741 1.49023,-1.3457 0.4827,-0.4583 0.94994,-0.92505 1.40234,-1.4043 0.45241,-0.47925 0.88899,-0.97047 1.3086,-1.47266 0.41961,-0.50218 0.82271,-1.01586 1.20703,-1.54296 0.38432,-0.52712 0.74917,-1.06706 1.0957,-1.6211 0.34654,-0.55404 0.67422,-1.12213 0.98047,-1.70508 0.30625,-0.58295 0.59201,-1.18107 0.85547,-1.79492 0.26346,-0.61385 0.50447,-1.24389 0.72266,-1.89062 0.21818,-0.64674 0.41358,-1.31057 0.58398,-1.99219 0.23252,-0.93008 0.45133,-1.8641 0.6582,-2.80078 0.20688,-0.93669 0.40139,-1.87557 0.58399,-2.81836 0.1826,-0.9428 0.35399,-1.8895 0.51367,-2.83789 0.15968,-0.9484 0.30718,-1.89808 0.44531,-2.85156 0.13813,-0.9535 0.26682,-1.91106 0.38477,-2.86915 0.11794,-0.95808 0.2251,-1.91673 0.32422,-2.8789 0.19824,-1.92434 0.36105,-3.85727 0.49218,-5.79492 0.13114,-1.93766 0.23171,-3.8812 0.30665,-5.82813 0.0749,-1.94693 0.12465,-3.89744 0.15429,-5.84961 0.0297,-1.95217 0.0399,-3.90601 0.0352,-5.85937 -0.005,-1.95337 -0.0245,-3.90495 -0.0527,-5.85547 -0.006,-0.39148 -0.0171,-0.77866 -0.0234,-1.16992 z m 203.89843,94.68164 c -0.59066,-0.007 -1.18284,-0.004 -1.77539,0.01 -0.59255,0.0136 -1.18674,0.0388 -1.78125,0.0742 -0.5945,0.0355 -1.18862,0.0819 -1.78515,0.14063 -0.59653,0.0587 -1.19435,0.12942 -1.79297,0.21289 -0.59862,0.0835 -1.19805,0.17939 -1.79883,0.28906 -0.60078,0.10967 -1.20364,0.23181 -1.80664,0.36914 -0.603,0.13733 -1.20721,0.29059 -1.8125,0.45703 -0.60529,0.16644 -1.21071,0.34596 -1.81836,0.54297 -0.60765,0.19701 -1.2161,0.40963 -1.82617,0.63867 -0.61007,0.22904 -1.22142,0.47576 -1.83399,0.73828 -0.47788,0.20481 -0.94736,0.41768 -1.40625,0.64063 -0.45888,0.22294 -0.90727,0.45472 -1.34765,0.69531 -0.44038,0.24059 -0.87257,0.49031 -1.29492,0.74805 -0.42236,0.25774 -0.83541,0.52443 -1.24024,0.79883 -0.40482,0.27439 -0.80167,0.5571 -1.18945,0.84765 -0.38778,0.29056 -0.76745,0.58831 -1.13867,0.89453 -0.37122,0.30622 -0.73274,0.62002 -1.08789,0.94141 -0.35515,0.32139 -0.70341,0.65026 -1.04297,0.98633 -0.33957,0.33606 -0.67162,0.681 -0.9961,1.03125 -0.32447,0.35024 -0.6413,0.70638 -0.95117,1.07031 -0.30987,0.36393 -0.61245,0.7342 -0.9082,1.11133 -0.29575,0.37712 -0.58507,0.76057 -0.86719,1.15039 -0.28212,0.38982 -0.5572,0.78743 -0.82617,1.18945 -0.26897,0.40202 -0.53079,0.80893 -0.78711,1.22266 -0.51263,0.82745 -1.00186,1.67752 -1.4668,2.54883 -0.46493,0.8713 -0.90698,1.76457 -1.32812,2.67578 -0.42114,0.9112 -0.81993,1.83996 -1.20117,2.78711 -0.38125,0.94714 -0.74459,1.9115 -1.08985,2.89062 -0.34525,0.97912 -0.67316,1.97333 -0.98633,2.98047 -0.31316,1.00714 -0.6115,2.02739 -0.89648,3.05859 -0.28498,1.0312 -0.55572,2.0737 -0.81641,3.125 -0.26069,1.05131 -0.51164,2.11225 -0.75195,3.17969 -0.24031,1.06745 -0.47149,2.14109 -0.69531,3.2207 -0.44765,2.15926 -0.86636,4.3392 -1.27149,6.52344 -0.40513,2.18424 -0.79562,4.37323 -1.18945,6.55078 -0.39383,2.17755 -0.78939,4.34324 -1.20312,6.48243 -0.20688,1.06959 -0.41902,2.13343 -0.63672,3.1875 -0.21771,1.05406 -0.4414,2.09823 -0.67383,3.13281 -0.23244,1.03458 -0.47354,2.05918 -0.72461,3.07031 -0.25107,1.01113 -0.51155,2.01042 -0.78516,2.99414 -0.2736,0.98373 -0.55933,1.95194 -0.85937,2.9043 -0.30005,0.95236 -0.61494,1.88765 -0.94531,2.80469 -0.33039,0.91703 -0.67639,1.8156 -1.04102,2.69336 -0.36463,0.87774 -0.74762,1.73579 -1.15039,2.57031 -0.40277,0.83451 -0.82667,1.64628 -1.27149,2.43359 -0.44482,0.78731 -0.91157,1.549 -1.40234,2.28516 -0.34082,0.51123 -0.7029,1.03146 -1.08203,1.56054 -0.37913,0.52909 -0.77517,1.06769 -1.18555,1.61329 -0.82075,1.09118 -1.69629,2.2142 -2.59961,3.36328 -0.90332,1.14907 -1.83431,2.3234 -2.76367,3.51953 -0.92935,1.19612 -1.85701,2.41414 -2.75586,3.64648 -0.44942,0.61617 -0.89106,1.23619 -1.32226,1.85938 -0.4312,0.62319 -0.85191,1.25004 -1.25782,1.8789 -0.4059,0.62886 -0.79833,1.25941 -1.17187,1.89258 -0.37355,0.63317 -0.72838,1.26817 -1.0625,1.9043 -0.33412,0.63613 -0.64793,1.27242 -0.93555,1.91016 -0.28762,0.63772 -0.54914,1.27608 -0.7832,1.91406 -0.23406,0.63798 -0.43985,1.27718 -0.61328,1.91406 -0.17343,0.63688 -0.31419,1.27184 -0.41992,1.90625 -0.0695,0.41665 -0.12851,0.83604 -0.17774,1.25586 -0.0492,0.41982 -0.0888,0.84085 -0.11914,1.26367 -0.0607,0.84564 -0.0847,1.69615 -0.0781,2.55274 0.007,0.85658 0.0426,1.71784 0.10546,2.58398 0.0629,0.86614 0.15142,1.73703 0.25977,2.61133 0.10835,0.8743 0.23794,1.75369 0.38086,2.63476 0.11669,0.71939 0.24771,1.44101 0.38086,2.16407 a 140.45615,140.45615 0 0 0 115.41406,-127.3711 c -0.44269,-0.036 -0.88529,-0.052 -1.32812,-0.0976 -1.1306,-0.11671 -2.26069,-0.26331 -3.39258,-0.43555 -1.13189,-0.17224 -2.26472,-0.36983 -3.39844,-0.58594 -1.13372,-0.2161 -2.26822,-0.4509 -3.4043,-0.69922 -2.27215,-0.49663 -4.54919,-1.04605 -6.83398,-1.60156 -2.28479,-0.55551 -4.57721,-1.11757 -6.87891,-1.63867 -1.15085,-0.26055 -2.30506,-0.51164 -3.46093,-0.74609 -1.15588,-0.23447 -2.31318,-0.45173 -3.47461,-0.64844 -1.16144,-0.19671 -2.32661,-0.37223 -3.49414,-0.51953 -1.16754,-0.1473 -2.33756,-0.26729 -3.51172,-0.35352 -0.58708,-0.0431 -1.17484,-0.0779 -1.76368,-0.10351 -0.58882,-0.0257 -1.17887,-0.0421 -1.76953,-0.0488 z"
       transform="scale(0.26458333)" />
    <circle
       style="display:none;fill:none;fill-rule:evenodd;stroke:#000000;stroke-width:0.675288;stroke-opacity:1"
       id="circle1866"
       cx="112.03532"
       cy="118.9999"
       r="37.162357"
       inkscape:label="inner circle" />
    <path
       id="circle2028"
       style="fill:none;fill-rule:evenodd;stroke:none;stroke-width:0.852034"
       inkscape:label="text path"
       d="m 112.03532,165.88891 c 25.89608,0 46.889,-20.99293 46.889,-46.88901"
       sodipodi:nodetypes="cc" />
  </g>
</svg>
