<?xml version="1.0" encoding="UTF-8" standalone="no"?>
<!-- Created with Inkscape (http://www.inkscape.org/) -->

<svg
   width="886.42841mm"
   height="886.42841mm"
   viewBox="0 0 886.4284 886.4284"
   version="1.1"
   id="svg5"
   inkscape:version="1.1.1 (3bf5ae0d25, 2021-09-20)"
   sodipodi:docname="Nevin's_Barberry_vectors.svg"
   xmlns:inkscape="http://www.inkscape.org/namespaces/inkscape"
   xmlns:sodipodi="http://sodipodi.sourceforge.net/DTD/sodipodi-0.dtd"
   xmlns="http://www.w3.org/2000/svg"
   xmlns:svg="http://www.w3.org/2000/svg">
  <sodipodi:namedview
     id="namedview7"
     pagecolor="#ffffff"
     bordercolor="#666666"
     borderopacity="1.0"
     inkscape:pageshadow="2"
     inkscape:pageopacity="0.0"
     inkscape:pagecheckerboard="0"
     inkscape:document-units="mm"
     showgrid="false"
     fit-margin-top="0"
     fit-margin-left="0"
     fit-margin-right="0"
     fit-margin-bottom="0"
     inkscape:zoom="0.21459759"
     inkscape:cx="1563.3913"
     inkscape:cy="1833.6646"
     inkscape:window-width="1920"
     inkscape:window-height="991"
     inkscape:window-x="-9"
     inkscape:window-y="-9"
     inkscape:window-maximized="1"
     inkscape:current-layer="layer1" />
  <defs
     id="defs2">
    <rect
       x="-605.785"
       y="862.07865"
       width="2121.7906"
       height="464.70269"
       id="rect13057" />
    <inkscape:path-effect
       effect="fillet_chamfer"
       id="path-effect3910"
       is_visible="true"
       lpeversion="1"
       satellites_param="F,0,0,1,0,8.4666667,0,7 @ F,0,0,1,0,8.4666667,0,7 @ F,0,0,1,0,8.4666667,0,7 @ F,0,0,1,0,8.4666667,0,7 @ F,0,0,1,0,8.4666667,0,7 @ F,0,0,1,0,8.4666667,0,7 @ F,0,0,1,0,8.4666667,0,7 @ F,0,0,1,0,8.4666667,0,7 @ F,0,0,1,0,8.4666667,0,7 @ F,0,0,1,0,8.4666667,0,7 @ F,0,0,1,0,8.4666667,0,7 @ F,0,0,1,0,8.4666667,0,7 @ F,0,0,1,0,8.4666667,0,7 @ F,0,0,1,0,8.4666667,0,7 @ F,0,0,1,0,8.4666667,0,7 @ F,0,0,1,0,8.4666667,0,7 @ F,0,0,1,0,8.4666667,0,7 @ F,0,0,1,0,8.4666667,0,7 @ F,0,0,1,0,8.4666667,0,7 @ F,0,0,1,0,8.4666667,0,7 @ F,0,0,1,0,8.4666667,0,7 @ F,0,0,1,0,8.4666667,0,7 @ F,0,0,1,0,8.4666667,0,7 @ F,0,0,1,0,8.4666667,0,7 @ F,0,0,1,0,8.4666667,0,7 @ F,0,0,1,0,8.4666667,0,7 @ F,0,0,1,0,8.4666667,0,7 @ F,0,0,1,0,8.4666667,0,7 @ F,0,0,1,0,8.4666667,0,7 @ F,0,0,1,0,8.4666667,0,7 @ F,0,0,1,0,8.4666667,0,7 @ F,0,0,1,0,8.4666667,0,7 @ F,0,0,1,0,8.4666667,0,7 @ F,0,0,1,0,8.4666667,0,7 @ F,0,0,1,0,8.4666667,0,7 @ F,0,0,1,0,8.4666667,0,7 @ F,0,0,1,0,8.4666667,0,7 @ F,0,0,1,0,8.4666667,0,7 @ F,0,0,1,0,8.4666667,0,7 @ F,0,0,1,0,8.4666667,0,7 @ F,0,0,1,0,8.4666667,0,7 @ F,0,0,1,0,8.4666667,0,7 @ F,0,0,1,0,8.4666667,0,7 @ F,0,0,1,0,8.4666667,0,7 @ F,0,0,1,0,8.4666667,0,7 @ F,0,0,1,0,8.4666667,0,7 @ F,0,0,1,0,8.4666667,0,7 @ F,0,0,1,0,8.4666667,0,7 @ F,0,0,1,0,8.4666667,0,7 @ F,0,0,1,0,8.4666667,0,7 @ F,0,0,1,0,8.4666667,0,7 @ F,0,0,1,0,8.4666667,0,7 @ F,0,0,1,0,8.4666667,0,7 @ F,0,0,1,0,8.4666667,0,7 @ F,0,0,1,0,8.4666667,0,7 @ F,0,0,1,0,8.4666667,0,7 @ F,0,0,1,0,8.4666667,0,7 @ F,0,0,1,0,8.4666667,0,7 @ F,0,0,1,0,8.4666667,0,7 @ F,0,0,1,0,8.4666667,0,7 @ F,0,0,1,0,8.4666667,0,7 @ F,0,0,1,0,8.4666667,0,7 @ F,0,0,1,0,8.4666667,0,7 @ F,0,0,1,0,8.4666667,0,7 @ F,0,0,1,0,8.4666667,0,7 @ F,0,0,1,0,8.4666667,0,7 @ F,0,0,1,0,8.4666667,0,7 @ F,0,0,1,0,8.4666667,0,7 @ F,0,0,1,0,8.4666667,0,7 @ F,0,0,1,0,8.4666667,0,7 @ F,0,0,1,0,8.4666667,0,7 @ F,0,0,1,0,8.4666667,0,7 @ F,0,0,1,0,8.4666667,0,7 @ F,0,0,1,0,8.4666667,0,7 @ F,0,0,1,0,8.4666667,0,7 @ F,0,0,1,0,8.4666667,0,7 @ F,0,0,1,0,8.4666667,0,7 @ F,0,0,1,0,8.4666667,0,7 @ F,0,0,1,0,8.4666667,0,7 @ F,0,0,1,0,8.4666667,0,7 @ F,0,0,1,0,8.4666667,0,7 @ F,0,0,1,0,8.4666667,0,7 @ F,0,0,1,0,8.4666667,0,7 @ F,0,0,1,0,8.4666667,0,7 @ F,0,0,1,0,8.4666667,0,7 @ F,0,0,1,0,8.4666667,0,7 @ F,0,0,1,0,8.4666667,0,7 @ F,0,0,1,0,8.4666667,0,7 @ F,0,0,1,0,8.4666667,0,7 @ F,0,0,1,0,8.4666667,0,7 @ F,0,0,1,0,8.4666667,0,7 @ F,0,0,1,0,8.4666667,0,7 @ F,0,0,1,0,8.4666667,0,7 @ F,0,0,1,0,8.4666667,0,7 @ F,0,0,1,0,8.4666667,0,7 @ F,0,0,1,0,8.4666667,0,7 @ F,0,0,1,0,8.4666667,0,7 @ F,0,0,1,0,8.4666667,0,7 @ F,0,0,1,0,8.4666667,0,7 @ F,0,0,1,0,8.4666667,0,7 @ F,0,0,1,0,8.4666667,0,7 @ F,0,0,1,0,8.4666667,0,7 @ F,0,0,1,0,8.4666667,0,7 @ F,0,0,1,0,8.4666667,0,7 @ F,0,0,1,0,8.4666667,0,7 @ F,0,0,1,0,8.4666667,0,7 @ F,0,0,1,0,8.4666667,0,7 @ F,0,0,1,0,8.4666667,0,7 @ F,0,0,1,0,8.4666667,0,7 @ F,0,0,1,0,8.4666667,0,7 @ F,0,0,1,0,8.4666667,0,7 @ F,0,0,1,0,8.4666667,0,7 @ F,0,0,1,0,8.4666667,0,7 @ F,0,0,1,0,8.4666667,0,7 @ F,0,0,1,0,8.4666667,0,7 @ F,0,0,1,0,8.4666667,0,7 @ F,0,0,1,0,8.4666667,0,7 @ F,0,0,1,0,8.4666667,0,7 @ F,0,0,1,0,8.4666667,0,7 @ F,0,0,1,0,8.4666667,0,7 @ F,0,0,1,0,8.4666667,0,7 @ F,0,0,1,0,8.4666667,0,7 @ F,0,0,1,0,8.4666667,0,7 @ F,0,0,1,0,8.4666667,0,7 @ F,0,0,1,0,8.4666667,0,7 @ F,0,0,1,0,8.4666667,0,7 @ F,0,0,1,0,8.4666667,0,7 @ F,0,0,1,0,8.4666667,0,7 @ F,0,0,1,0,8.4666667,0,7 @ F,0,0,1,0,8.4666667,0,7 @ F,0,0,1,0,8.4666667,0,7 @ F,0,0,1,0,8.4666667,0,7 @ F,0,0,1,0,8.4666667,0,7 @ F,0,0,1,0,8.4666667,0,7 @ F,0,0,1,0,8.4666667,0,7 @ F,0,0,1,0,8.4666667,0,7 @ F,0,0,1,0,8.4666667,0,7 @ F,0,0,1,0,8.4666667,0,7 @ F,0,0,1,0,8.4666667,0,7 @ F,0,0,1,0,8.4666667,0,7 @ F,0,0,1,0,8.4666667,0,7 @ F,0,0,1,0,8.4666667,0,7 @ F,0,0,1,0,8.4666667,0,7 @ F,0,0,1,0,8.4666667,0,7 @ F,0,0,1,0,8.4666667,0,7 @ F,0,0,1,0,8.4666667,0,7 @ F,0,0,1,0,8.4666667,0,7 @ F,0,0,1,0,8.4666667,0,7 @ F,0,0,1,0,8.4666667,0,7 @ F,0,0,1,0,8.4666667,0,7 @ F,0,0,1,0,8.4666667,0,7 @ F,0,0,1,0,8.4666667,0,7 @ F,0,0,1,0,8.4666667,0,7 @ F,0,0,1,0,8.4666667,0,7 @ F,0,0,1,0,8.4666667,0,7 @ F,0,0,1,0,8.4666667,0,7 @ F,0,0,1,0,8.4666667,0,7 @ F,0,0,1,0,8.4666667,0,7 @ F,0,0,1,0,8.4666667,0,7 @ F,0,0,1,0,8.4666667,0,7 @ F,0,0,1,0,8.4666667,0,7 @ F,0,0,1,0,8.4666667,0,7 @ F,0,0,1,0,8.4666667,0,7 @ F,0,0,1,0,8.4666667,0,7 @ F,0,0,1,0,8.4666667,0,7 @ F,0,0,1,0,8.4666667,0,7 @ F,0,0,1,0,8.4666667,0,7 @ F,0,0,1,0,8.4666667,0,7 @ F,0,0,1,0,8.4666667,0,7 @ F,0,0,1,0,8.4666667,0,7 @ F,0,0,1,0,8.4666667,0,7 @ F,0,0,1,0,8.4666667,0,7 @ F,0,0,1,0,8.4666667,0,7 @ F,0,0,1,0,8.4666667,0,7 | F,0,0,1,0,8.4666667,0,7 @ F,0,0,1,0,8.4666667,0,7 @ F,0,0,1,0,8.4666667,0,7 | F,0,0,1,0,8.4666667,0,7 @ F,0,0,1,0,8.4666667,0,7 @ F,0,0,1,0,8.4666667,0,7 | F,0,0,1,0,8.4666667,0,7 @ F,0,0,1,0,8.4666667,0,7 @ F,0,0,1,0,8.4666667,0,7 | F,0,0,1,0,8.4666667,0,7 @ F,0,0,1,0,8.4666667,0,7 @ F,0,0,1,0,8.4666667,0,7 | F,0,0,1,0,8.4666667,0,7 @ F,0,0,1,0,8.4666667,0,7 @ F,0,0,1,0,8.4666667,0,7 | F,0,0,1,0,8.4666667,0,7 @ F,0,0,1,0,8.4666667,0,7 @ F,0,0,1,0,8.4666667,0,7 | F,0,0,1,0,8.4666667,0,7 @ F,0,0,1,0,8.4666667,0,7 @ F,0,0,1,0,8.4666667,0,7 | F,0,0,1,0,8.4666667,0,7 @ F,0,0,1,0,8.4666667,0,7 @ F,0,0,1,0,8.4666667,0,7 | F,0,0,1,0,8.4666667,0,7 @ F,0,0,1,0,8.4666667,0,7 @ F,0,0,1,0,8.4666667,0,7 | F,0,0,1,0,8.4666667,0,7 @ F,0,0,1,0,8.4666667,0,7 @ F,0,0,1,0,8.4666667,0,7 | F,0,0,1,0,8.4666667,0,7 @ F,0,0,1,0,8.4666667,0,7 @ F,0,0,1,0,8.4666667,0,7 | F,0,0,1,0,8.4666667,0,7 @ F,0,0,1,0,8.4666667,0,7 @ F,0,0,1,0,8.4666667,0,7"
       unit="px"
       method="bezier"
       mode="F"
       radius="32"
       chamfer_steps="7"
       flexible="false"
       use_knot_distance="true"
       apply_no_radius="true"
       apply_with_radius="true"
       only_selected="false"
       hide_knots="false" />
    <inkscape:path-effect
       effect="offset"
       id="path-effect3809"
       is_visible="true"
       lpeversion="1"
       linejoin_type="round"
       unit="mm"
       offset="9.9350419"
       miter_limit="4"
       attempt_force_join="false"
       update_on_knot_move="true" />
    <inkscape:path-effect
       effect="offset"
       id="path-effect3688"
       is_visible="true"
       lpeversion="1"
       linejoin_type="round"
       unit="mm"
       offset="69.246119"
       miter_limit="4"
       attempt_force_join="false"
       update_on_knot_move="true" />
  </defs>
  <g
     inkscape:label="Layer 1"
     inkscape:groupmode="layer"
     id="layer1"
     transform="translate(271.08103,260.81119)">
    <path
       id="path4319"
       style="display:inline;fill:none;stroke:#000000;stroke-width:3.77953;stroke-linecap:butt;stroke-linejoin:miter;stroke-miterlimit:4;stroke-dasharray:none;stroke-opacity:1"
       inkscape:label="outline"
       d="m 1138.3809,720.38867 c -1.2563,14.44945 -2.5513,28.88937 -4.1661,43.28125 -10e-4,0.01 0,0.0195 0,0.0293 -4.6492,39.78781 -10.4158,77.64968 -20.8769,114.25781 -4.0137,13.15761 -6.8567,22.83975 -11.4551,31.46875 -3.4686,6.46563 -7.699,10.01293 -11.2871,11.35352 -0.025,0.01 -0.049,0.0195 -0.074,0.0293 -9.3506,3.51552 -21.9859,2.70118 -40.3418,-0.21484 -32.8513,-5.48641 -71.58465,-16.79489 -110.83986,-15.97461 -7.28333,0.11406 -14.712,0.75477 -22.15625,1.93164 M 804.78731,1043.3145 c 0.72962,4.0772 1.60795,8.1072 2.80078,12.0058 8.84519,29.4625 27.15006,53.2919 42.58594,71.6563 0.10721,0.129 0.21529,0.2572 0.32422,0.3847 30.55372,35.3762 65.89992,66.0639 96.85937,97.2051 19.18839,19.455 35.44356,36.6424 47.54688,56.9141 7.0676,12.0175 9.5618,21.2911 8.5039,27.7617 -0.01,0.025 -0.011,0.049 -0.016,0.074 -0.9523,5.8945 -5.78285,13.1975 -15.67971,21.1211 -0.10857,0.088 -0.21664,0.1765 -0.32422,0.2656 -7.68107,6.2905 -16.5096,11.2241 -25.49609,14.3789 -0.0299,0.012 -0.0599,0.025 -0.0898,0.037 -19.66725,6.9608 -41.7633,7.3945 -66.77539,4.1192 -34.72325,-4.6489 -68.67633,-15.1078 -105.22265,-26.25 l -0.043,-0.016 C 751.15887,1311.2595 709.34359,1297.6441 665.5,1291.252 m 107.54688,1200.4746 c 1.2624,1.778 2.52933,3.5527 3.80078,5.3242 m 0,0 c 57.13613,-14.7983 111.7783,-34.9199 166.35351,-48.4121 28.53573,-6.9398 55.50318,-11.3569 81.75393,-10.1289 0.1158,0.01 0.2317,0.011 0.3476,0.016 25.7657,0.9666 52.1814,6.9983 78.418,16.2617 l 0.051,0.016 c 54.2654,19.0721 108.3486,50.812 169.7539,67.4493 l 0.207,0.051 c 19.8013,5.2446 41.5688,9.6556 64.2071,10.5938 0.4379,0.02 0.8761,0.032 1.3144,0.037 26.4715,0.1742 52.4538,-4.1133 75.1484,-7.5371 0.133,-0.021 0.2658,-0.043 0.3985,-0.066 65.9887,-10.6905 129.9114,-23.7081 194.7344,-31.1582 l 0.059,-0.01 c 36.9322,-4.1092 72.0577,-6.7195 106.6894,-4.0157 19.0568,1.6089 35.0316,4.4931 48.9356,10.9024 7.3282,3.4383 12.0322,7.3293 14.9101,11.3828 4.0983,6.4321 6.4631,12.7139 10.7266,22.1836 15.7042,36.704 24.5147,76.2665 27.3574,116.832 0,0.049 0.01,0.099 0.01,0.1485 4.9512,66.7201 -4.3189,132.1783 -10.1289,201.9902 -5.0591,59.3322 -7.3222,122.3774 3.3008,184.5879 0,-0.018 -0.012,-0.034 -0.016,-0.051 l 0.023,0.1406 c 0,-0.029 0,-0.056 -0.01,-0.084 1.8993,11.3581 4.3369,22.6225 7.084,33.8125 m 1103.0625,-579.6718 c -40.5123,-34.1519 -81.2539,-67.688 -120.6348,-102.1621 -0.015,-0.015 -0.035,-0.031 -0.053,-0.045 -26.5014,-23.5839 -50.9181,-45.639 -71.9512,-70.9902 -9.5791,-11.7494 -15.7499,-21.0682 -18.7715,-30.9238 -0.1369,-0.4454 -0.2821,-0.8882 -0.4355,-1.3282 -8.055,-23.1521 -12.1101,-47.6101 -12.2168,-72.3496 1e-4,-0.059 1e-4,-0.1185 0,-0.1777 -0.6274,-69.7987 27.6567,-139.0914 32.6718,-217.4863 3.0091,-42.4132 -1.6999,-86.0325 -15.6933,-127.211 l -0.01,-0.016 c -13.1787,-39.1535 -33.3649,-75.0134 -56.9297,-107.0078 -0.2121,-0.2863 -0.4283,-0.5695 -0.6485,-0.8496 -21.2152,-27.1442 -51.7338,-42.0699 -78.6992,-50.2852 l -0.059,-0.014 c -37.7593,-11.4358 -77.0606,-14.2306 -111.6953,-17.2813 -29.1997,-2.6261 -54.8253,-4.2859 -79.3183,-10.7851 -14.2602,-3.9944 -22.1337,-7.968 -26.4786,-13.6055 -0.059,-0.076 -0.1182,-0.1526 -0.1777,-0.2285 -2.9322,-3.7438 -3.8537,-8.3087 -6.2305,-20.2266 -3.732,-20.9989 -1.4123,-44.0815 5.1075,-67.5371 v -0.016 c 10.0356,-35.664 27.7945,-69.7475 48.9355,-103.9219 31.6972,-50.682 68.9483,-97.9154 108.2324,-145.3047 81.6045,-97.9412 170.0739,-192.0832 249.8867,-293.9473 l 0.072,-0.096 c 20.0855,-25.8072 39.9722,-52.46649 58.7617,-80.16207 m -613.78,-399.32797 c -1.1152,-0.32708 -2.2308,-0.65265 -3.3469,-0.97671 m 0,0 c -6.1922,5.39649 -12.5378,10.72753 -18.6094,16.16015 -48.7216,43.55025 -94.4765,89.60727 -141.748,132.74219 -13.0654,11.72617 -25.0982,22.48019 -37.877,32.28125 -0.79,0.55892 -1.5627,0.80163 -3.1289,0.35352 -0.1748,-0.0481 -0.3499,-0.095 -0.5254,-0.14063 -7.182,-1.94279 -14.0384,-6.40463 -24.1445,-14.63672 -20.5189,-16.89413 -37.9973,-38.50534 -60.5684,-59.38867 -13.6143,-12.89557 -30.9121,-22.98105 -50.5137,-27.49609 v -0.002 c 0.034,0.008 0.068,0.008 0.1016,0.0156 l -0.1992,-0.0449 c 0.033,0.007 0.063,0.0236 0.096,0.0312 -29.7339,-6.95959 -60.7702,-1.57346 -83.1641,2.58984 -25.9354,4.78382 -45.3775,9.68162 -64.0078,7.56641 -0.072,-0.01 -0.1432,-0.0197 -0.2148,-0.0293 -8.8045,-0.94794 -16.9166,-5.17648 -22.293,-11.35352 -9.1504,-10.94245 -15.8285,-23.88167 -24.3457,-40.21679 -12.0929,-24.13503 -23.139,-48.70633 -33.998,-73.51953 m 0,0 c -1.285,0.22595 -2.5683,0.45306 -3.85,0.68134 m -498.9028,195.44638 c -0.6022,0.42945 -1.2031,0.85975 -1.8027,1.29089"
       transform="matrix(0.26458333,0,0,0.26458333,-316.68608,-291.13436)"
       sodipodi:nodetypes="csccccccccccccccccccccccccccccscccccccccccccccscccccccccccscsccccccccccscccccccccccccccccccccccccccccccccc" />
    <circle
       style="display:inline;fill:none;stroke:#000000;stroke-width:1.09772;stroke-miterlimit:4;stroke-dasharray:none;stroke-opacity:1"
       id="path2037"
       cx="172.13318"
       cy="182.40302"
       r="442.66534"
       inkscape:label="outer circle" />
    <path
       id="circle4148"
       style="display:inline;fill:none;stroke:#000000;stroke-width:0.842087"
       inkscape:label="inner circle"
       d="m 430.15247,-38.377765 c 50.84636,59.366635 81.55966,136.486973 81.55966,220.780785 0,67.93711 -19.95029,131.21458 -54.3119,184.29344 M 162.11318,521.83696 C 47.172478,518.50624 -53.449411,458.05862 -112.35967,367.88692 M -141.28302,51.467099 c 10.12926,-24.217649 22.9836,-47.0120699 38.17968,-67.999936 m 28.626758,-34.512274 c 17.802481,-18.79976 37.731592,-35.565187 59.402248,-49.911199 m 132.080034,-51.7676 c 17.94224,-2.92907 36.35701,-4.45202 55.12748,-4.45202 33.38009,0 65.63529,4.81626 96.10858,13.79178"
       sodipodi:nodetypes="csccccccccsc"
       sodipodi:insensitive="true" />
    <path
       id="path11361"
       style="fill:none;stroke:none;stroke-width:1.08352"
       d="m -245.13611,182.40302 c 0,110.66669 43.96218,216.80077 122.21535,295.05394 78.25317,78.25317 184.387245,122.21534 295.05394,122.21534"
       sodipodi:nodetypes="csc" />
  </g>
</svg>
