<?xml version="1.0" encoding="UTF-8" standalone="no"?>
<!-- Created with Inkscape (http://www.inkscape.org/) -->

<svg
   width="240mm"
   height="251.98082mm"
   viewBox="0 0 240 251.98082"
   version="1.1"
   id="svg18970"
   inkscape:version="1.1.1 (3bf5ae0d25, 2021-09-20)"
   sodipodi:docname="Coastal_Dunes_Milk-Vetch.svg"
   xmlns:inkscape="http://www.inkscape.org/namespaces/inkscape"
   xmlns:sodipodi="http://sodipodi.sourceforge.net/DTD/sodipodi-0.dtd"
   xmlns="http://www.w3.org/2000/svg"
   xmlns:svg="http://www.w3.org/2000/svg">
  <sodipodi:namedview
     id="namedview18972"
     pagecolor="#ffffff"
     bordercolor="#666666"
     borderopacity="1.0"
     inkscape:pageshadow="2"
     inkscape:pageopacity="0.0"
     inkscape:pagecheckerboard="0"
     inkscape:document-units="mm"
     showgrid="false"
     fit-margin-top="20"
     fit-margin-right="20"
     fit-margin-bottom="20"
     fit-margin-left="20"
     inkscape:zoom="0.90583672"
     inkscape:cx="591.71812"
     inkscape:cy="532.6567"
     inkscape:window-width="1920"
     inkscape:window-height="1137"
     inkscape:window-x="3832"
     inkscape:window-y="458"
     inkscape:window-maximized="1"
     inkscape:current-layer="layer1" />
  <defs
     id="defs18967">
    <clipPath
       clipPathUnits="userSpaceOnUse"
       id="clipPath19080">
      <path
         style="fill:none;stroke:#000000;stroke-width:0.264583px;stroke-linecap:butt;stroke-linejoin:miter;stroke-opacity:1"
         d="m 35.937412,38.415854 c 5.32012,-4.42831 11.743341,-6.805332 18.175245,-9.08762 28.466585,-10.101047 52.557553,11.833374 56.591093,40.068151 1.09462,7.662299 -0.68756,19.966117 5.36996,26.023639 18.74214,18.742136 63.46204,-6.637912 58.24339,35.111266 -0.48564,3.88517 -44.55099,11.47462 -58.65646,32.63283 -12.36655,18.54982 10.7251,66.31193 -25.61057,60.72183 C 78.307618,222.07942 78.259416,198.54402 77.244784,190.42698 74.539996,168.78867 57.480684,136.49689 43.785814,119.3783 36.768162,110.60624 23.713042,102.86188 19.414464,92.115439 13.07823,76.274851 24.139151,46.281364 35.937412,38.415854 Z"
         id="path19082" />
    </clipPath>
  </defs>
  <g
     inkscape:label="Layer 1"
     inkscape:groupmode="layer"
     id="layer1"
     transform="translate(27.154553,2.6730186)">
    <circle
       style="fill:none;fill-rule:evenodd;stroke:#000000;stroke-width:0.37829;stroke-opacity:1"
       id="path19186"
       cx="92.845444"
       cy="125.47827"
       r="99.810852"
       inkscape:label="Outer Circle" />
    <path
       id="circle19320"
       style="display:inline;fill:none;fill-rule:evenodd;stroke:#000000;stroke-width:1.07232;stroke-opacity:1"
       d="m 543.33789,216.07617 c 0.0249,1.27199 0.0689,2.51867 0.082,3.80664 0.0309,3.02268 0.0304,6.08657 0.002,9.18555 -0.0285,3.09898 -0.0858,6.23183 -0.16602,9.39062 -0.0802,3.15879 -0.1843,6.34281 -0.30859,9.54493 -0.2486,6.40422 -0.57822,12.87885 -0.95704,19.35742 -0.37881,6.47856 -0.80624,12.96183 -1.2539,19.38281 -0.89532,12.84197 -1.86746,25.43773 -2.66992,37.25781 -0.40123,5.91005 -0.76092,11.62535 -1.04688,17.08203 -0.28595,5.45669 -0.49811,10.65399 -0.60742,15.5254 -0.0547,2.43569 -0.083,4.79004 -0.082,7.05468 0.001,2.26465 0.0313,4.44048 0.0957,6.51758 0.0644,2.0771 0.16151,4.05468 0.29688,5.92774 0.13537,1.87304 0.30938,3.64043 0.52343,5.29296 0.21406,1.65253 0.46913,3.19191 0.76953,4.60743 0.30042,1.41551 0.64658,2.70714 1.04102,3.86914 0.19722,0.581 0.40674,1.13 0.62891,1.64453 0.22216,0.51453 0.45702,0.9954 0.70507,1.4414 0.24807,0.446 0.50828,0.85702 0.78321,1.23243 0.27493,0.3754 0.56443,0.71482 0.86719,1.01757 1.77909,1.77909 3.59834,3.50841 5.46289,5.16797 0.93227,0.82978 1.87555,1.64095 2.83007,2.4336 0.95453,0.79265 1.92107,1.56571 2.89844,2.3164 0.97737,0.75069 1.966,1.4797 2.9668,2.1836 1.0008,0.70389 2.01423,1.38288 3.03906,2.03515 1.02483,0.65227 2.06189,1.27724 3.11133,1.87305 1.04944,0.59581 2.1109,1.16274 3.18555,1.69727 1.07465,0.53451 2.16127,1.03746 3.26172,1.50585 1.10043,0.4684 2.21496,0.90334 3.34179,1.30079 1.12684,0.39744 2.26611,0.75646 3.41992,1.07812 1.15382,0.32166 2.32253,0.60466 3.50391,0.8457 1.18138,0.24104 2.37639,0.44012 3.58594,0.59571 1.20954,0.15559 2.43357,0.26868 3.67187,0.33398 1.2383,0.0653 2.49018,0.0845 3.75781,0.0547 1.26765,-0.0298 2.55009,-0.10853 3.84766,-0.23828 1.32705,-0.13271 2.63305,-0.3409 3.91992,-0.61524 1.28688,-0.27434 2.55503,-0.61556 3.80664,-1.01367 1.25162,-0.39811 2.48576,-0.85341 3.70704,-1.35742 1.22126,-0.50401 2.42913,-1.05639 3.625,-1.64844 1.19585,-0.59205 2.38126,-1.2245 3.55664,-1.88672 1.17537,-0.66222 2.34019,-1.35383 3.5,-2.06836 2.31961,-1.42905 4.61351,-2.94547 6.90039,-4.47656 2.28688,-1.53108 4.5678,-3.07817 6.86132,-4.56836 1.14677,-0.74509 2.29732,-1.47552 3.45313,-2.18359 1.15581,-0.70807 2.31655,-1.39369 3.48633,-2.04688 1.16977,-0.65318 2.34844,-1.27308 3.53711,-1.85351 1.18866,-0.58043 2.38713,-1.12152 3.59961,-1.61133 1.21248,-0.48981 2.43847,-0.92922 3.67968,-1.31055 1.24122,-0.38132 2.49857,-0.70401 3.77344,-0.95898 1.2219,-0.24438 2.47896,-0.4647 3.76758,-0.66016 1.28861,-0.19545 2.60814,-0.36549 3.95703,-0.51172 1.34889,-0.14623 2.72618,-0.26852 4.12891,-0.36523 1.40273,-0.0967 2.83112,-0.16795 4.28125,-0.21484 1.45012,-0.0469 2.92297,-0.0696 4.41406,-0.0664 1.49109,0.003 2.99978,0.0323 4.52539,0.0859 1.52561,0.0536 3.0674,0.13202 4.62109,0.23632 1.55369,0.10431 3.11998,0.23337 4.69532,0.38868 1.57533,0.1553 3.15946,0.33637 4.75,0.54297 1.59053,0.20658 3.1878,0.43909 4.78711,0.69726 1.5993,0.25818 3.2011,0.54346 4.80273,0.85352 1.60163,0.31005 3.20327,0.64558 4.80078,1.00781 1.59752,0.36223 3.19039,0.74936 4.77734,1.16406 1.58697,0.4147 3.16831,0.85676 4.73829,1.32422 1.56997,0.46746 3.12924,0.9619 4.67578,1.48242 1.33685,0.44995 2.6578,0.92817 3.97265,1.41797 A 282.9284,282.9284 0 0 0 543.33789,216.07617 Z m -310.67578,91.5 a 282.9284,282.9284 0 0 0 -62.04688,176.77539 282.9284,282.9284 0 0 0 264.96875,282.25586 c 0.0162,-1.90652 0.0222,-3.80648 0.0605,-5.72851 0.12529,-6.25562 0.34697,-12.58334 0.52735,-18.92383 0.0902,-3.17025 0.16877,-6.34305 0.2207,-9.51172 0.0519,-3.16867 0.0777,-6.33442 0.0566,-9.48633 -0.021,-3.15191 -0.0882,-6.29021 -0.2168,-9.41015 -0.12863,-3.11996 -0.3189,-6.22016 -0.58984,-9.29297 -0.13548,-1.53641 -0.2912,-3.06612 -0.46875,-4.58789 -0.17756,-1.52178 -0.37759,-3.03578 -0.60156,-4.54102 -0.22398,-1.50524 -0.47137,-3.00147 -0.7461,-4.48828 -0.27472,-1.48681 -0.57644,-2.96517 -0.90625,-4.43164 -0.32981,-1.46648 -0.68889,-2.92099 -1.07812,-4.36524 -0.38924,-1.44424 -0.80873,-2.87675 -1.26172,-4.29687 -0.453,-1.42012 -0.93985,-2.82857 -1.46094,-4.22266 -0.52109,-1.39409 -1.0764,-2.77446 -1.66992,-4.14062 -0.59352,-1.36616 -1.22425,-2.71835 -1.89453,-4.05469 -0.67029,-1.33634 -1.37947,-2.65633 -2.13086,-3.96094 -0.75139,-1.30461 -1.54599,-2.59425 -2.38281,-3.86523 -0.83683,-1.27099 -1.71599,-2.5243 -2.64258,-3.75977 -1.03023,-1.37363 -2.08951,-2.71722 -3.17383,-4.03515 -1.08432,-1.31793 -2.19395,-2.61034 -3.32813,-3.87696 -1.13417,-1.26661 -2.29285,-2.50883 -3.47265,-3.72851 -1.17981,-1.21968 -2.38036,-2.41662 -3.60156,-3.59375 -1.22121,-1.17714 -2.46234,-2.33368 -3.72071,-3.47266 -1.25837,-1.13898 -2.53487,-2.26002 -3.82617,-3.36523 -2.58261,-2.21042 -5.22706,-4.35733 -7.91601,-6.45899 -2.68897,-2.10165 -5.42212,-4.15756 -8.1836,-6.18554 -2.76147,-2.02799 -5.55142,-4.02817 -8.35156,-6.01758 -5.60028,-3.97883 -11.24307,-7.91607 -16.79492,-11.95117 -2.77593,-2.01756 -5.52914,-4.06027 -8.24219,-6.14454 -2.71305,-2.08426 -5.38563,-4.21041 -8.00195,-6.39648 -1.30817,-1.09303 -2.60323,-2.20111 -3.88086,-3.32617 -1.27764,-1.12507 -2.53837,-2.26625 -3.78125,-3.42774 -1.24288,-1.16148 -2.46799,-2.34263 -3.67188,-3.54492 -1.20389,-1.20229 -2.3862,-2.42635 -3.54687,-3.67383 -1.16067,-1.24748 -2.29889,-2.51934 -3.41211,-3.8164 -1.11322,-1.29706 -2.20214,-2.61968 -3.26367,-3.97071 -1.06154,-1.35102 -2.09594,-2.72929 -3.10157,-4.13867 -1.00562,-1.40938 -1.98225,-2.85015 -2.92773,-4.32226 -0.94548,-1.47212 -1.85913,-2.97639 -2.74024,-4.51563 -0.88111,-1.53924 -1.73046,-3.1119 -2.54296,-4.72265 -0.81251,-1.61076 -1.58846,-3.25866 -2.32813,-4.94532 -0.73967,-1.68665 -1.44287,-3.41274 -2.10547,-5.17968 -0.76243,-2.03315 -1.48844,-4.0466 -2.17969,-6.04102 -0.69125,-1.99442 -1.34829,-3.97033 -1.97265,-5.92773 -0.62437,-1.9574 -1.21557,-3.89628 -1.77735,-5.81836 -0.56177,-1.92208 -1.09418,-3.82638 -1.59765,-5.71485 -1.00695,-3.77692 -1.89971,-7.48795 -2.69922,-11.14062 -0.79952,-3.65267 -1.50443,-7.24705 -2.13086,-10.78906 -0.62643,-3.54203 -1.17441,-7.03352 -1.66211,-10.47852 -0.4877,-3.445 -0.91552,-6.84349 -1.29883,-10.20508 -0.38331,-3.36159 -0.72383,-6.68477 -1.03711,-9.97656 -0.31327,-3.2918 -0.59937,-6.55345 -0.87695,-9.78906 -0.55517,-6.47124 -1.0729,-12.84366 -1.69141,-19.17188 -0.30925,-3.16411 -0.64487,-6.31607 -1.02148,-9.46484 -0.37661,-3.14878 -0.79512,-6.29435 -1.27344,-9.44141 -0.47832,-3.14706 -1.01453,-6.29612 -1.6289,-9.45508 -0.61438,-3.15896 -1.30702,-6.32724 -2.0918,-9.51172 -0.39239,-1.59223 -0.80662,-3.18789 -1.24805,-4.78906 -0.44143,-1.60117 -0.90953,-3.20851 -1.4043,-4.82031 -0.49475,-1.61181 -1.01791,-3.22938 -1.57031,-4.85352 -0.55239,-1.62414 -1.13373,-3.2544 -1.74804,-4.89257 -0.79193,-2.11181 -1.63882,-4.21691 -2.53516,-6.31836 -0.89634,-2.10146 -1.84217,-4.19838 -2.83203,-6.29102 -0.98986,-2.09264 -2.02323,-4.18221 -3.0957,-6.26758 -1.07249,-2.08536 -2.18393,-4.16646 -3.32813,-6.24609 -1.1442,-2.07963 -2.32231,-4.15699 -3.52734,-6.23242 -1.20503,-2.07543 -2.43645,-4.14989 -3.69141,-6.22266 -2.50992,-4.14554 -5.10965,-8.28751 -7.75391,-12.43164 -3.99941,-6.26796 -8.09029,-12.56123 -12.14648,-18.86133 z m 494.76172,247.0293 c -1.8319,0.28771 -3.68515,0.543 -5.58203,0.74023 -2.13715,0.22222 -4.313,0.3931 -6.52149,0.52735 -2.20848,0.13425 -4.45074,0.23187 -6.71875,0.30664 -4.53601,0.14953 -9.17962,0.20853 -13.88281,0.29101 -2.35159,0.0412 -4.71809,0.0871 -7.09375,0.1543 -2.37566,0.0672 -4.76052,0.1557 -7.14844,0.27734 -2.38791,0.12164 -4.77766,0.27786 -7.16601,0.48243 -2.38835,0.20456 -4.77538,0.45746 -7.15235,0.77343 -2.37696,0.31597 -4.74389,0.69454 -7.09765,1.15039 -2.35377,0.45586 -4.69298,0.98906 -7.01172,1.61329 -1.15937,0.3121 -2.31449,0.64631 -3.46289,1.00585 -1.1484,0.35955 -2.28983,0.74376 -3.42578,1.1543 -1.13596,0.41054 -2.26665,0.84741 -3.38868,1.3125 -1.12202,0.46509 -2.23712,0.95922 -3.34375,1.48242 -1.10662,0.52321 -2.20517,1.07528 -3.29492,1.66016 -1.08974,0.58488 -2.17079,1.20145 -3.24219,1.85156 -1.07138,0.65011 -2.13203,1.33383 -3.18359,2.05274 -1.05156,0.7189 -2.0928,1.47436 -3.12305,2.26562 -1.03024,0.79126 -2.04918,1.61916 -3.05664,2.48633 -1.00745,0.86717 -2.00313,1.7721 -2.98632,2.71875 -0.9832,0.94665 -1.95466,1.93516 -2.91211,2.96484 -0.95745,1.02968 -1.90182,2.10052 -2.83203,3.2168 -1.47628,1.77153 -2.98097,3.67807 -4.50782,5.70508 -1.52685,2.027 -3.07658,4.17553 -4.63867,6.42773 -1.56209,2.25221 -3.13675,4.6095 -4.71875,7.05664 -1.582,2.44714 -3.17124,4.9839 -4.75781,7.59571 -1.58657,2.6118 -3.17029,5.29872 -4.7461,8.04492 -1.5758,2.7462 -3.14366,5.55202 -4.69335,8.40234 -1.54971,2.85032 -3.08157,5.7438 -4.58985,8.66797 -1.50827,2.92418 -2.99185,5.87794 -4.44336,8.8457 -1.45151,2.96776 -2.87059,5.95057 -4.25,8.93164 -1.37941,2.98108 -2.71974,5.96166 -4.01172,8.92579 -1.29197,2.96412 -2.5354,5.91122 -3.72461,8.82812 -1.1892,2.9169 -2.32343,5.80318 -3.39453,8.64258 -1.0711,2.8394 -2.07991,5.63164 -3.01758,8.36328 -0.93766,2.73164 -1.80485,5.40249 -2.59375,7.99609 -0.78889,2.59361 -1.50021,5.10986 -2.125,7.53516 -0.62478,2.4253 -1.16207,4.7596 -1.60742,6.98633 -0.3288,1.64398 -0.61323,3.61831 -0.85937,5.87695 -0.24615,2.25864 -0.45554,4.80084 -0.63477,7.58594 -0.17922,2.7851 -0.32899,5.81179 -0.45703,9.03516 -0.12804,3.22335 -0.23358,6.64337 -0.32617,10.21679 -0.0446,1.7208 -0.0703,3.73271 -0.10938,5.51953 A 282.9284,282.9284 0 0 0 727.42383,554.60547 Z"
       transform="matrix(0.26458333,0,0,0.26458333,-27.154553,-2.6730186)"
       inkscape:label="Outline" />
    <path
       id="circle19536"
       style="fill:none;fill-rule:evenodd;stroke:none;stroke-width:0.361716"
       inkscape:label="Outer Circle"
       d="m 92.845444,220.9161 c 52.708856,0 95.437826,-42.72897 95.437826,-95.43783 m 0,0 c 0,-52.708856 -42.72897,-95.437826 -95.437826,-95.437827"
       sodipodi:nodetypes="cccc" />
  </g>
</svg>
