<?xml version="1.0" encoding="UTF-8" standalone="no"?>
<!-- Created with Inkscape (http://www.inkscape.org/) -->

<svg
   width="1029.6364mm"
   height="1029.6365mm"
   viewBox="0 0 1029.6364 1029.6364"
   version="1.1"
   id="svg25968"
   inkscape:version="1.1.1 (3bf5ae0d25, 2021-09-20)"
   sodipodi:docname="Milo_Bakers_Lupine_vectors.svg"
   xmlns:inkscape="http://www.inkscape.org/namespaces/inkscape"
   xmlns:sodipodi="http://sodipodi.sourceforge.net/DTD/sodipodi-0.dtd"
   xmlns="http://www.w3.org/2000/svg"
   xmlns:svg="http://www.w3.org/2000/svg">
  <sodipodi:namedview
     id="namedview25970"
     pagecolor="#ffffff"
     bordercolor="#666666"
     borderopacity="1.0"
     inkscape:pageshadow="2"
     inkscape:pageopacity="0.0"
     inkscape:pagecheckerboard="0"
     inkscape:document-units="mm"
     showgrid="false"
     fit-margin-top="0"
     fit-margin-left="0"
     fit-margin-right="0"
     fit-margin-bottom="0"
     inkscape:zoom="0.19197882"
     inkscape:rotation="-1"
     inkscape:cx="2052.609"
     inkscape:cy="1959.2782"
     inkscape:window-width="1920"
     inkscape:window-height="991"
     inkscape:window-x="-9"
     inkscape:window-y="-9"
     inkscape:window-maximized="1"
     inkscape:current-layer="layer1" />
  <defs
     id="defs25965">
    <rect
       x="-1002.0324"
       y="1066.0227"
       width="1743.9492"
       height="576.1225"
       id="rect36727" />
  </defs>
  <g
     inkscape:label="Layer 1"
     inkscape:groupmode="layer"
     id="layer1"
     transform="translate(212.32904,320.59627)">
    <path
       id="path27348"
       style="display:inline;fill:none;stroke:#000000;stroke-width:3.77953;stroke-linecap:butt;stroke-linejoin:miter;stroke-miterlimit:4;stroke-dasharray:none;stroke-opacity:1"
       d="m 1943.2402,640.6875 c -1.2893,0.15067 -2.5783,0.30301 -3.8672,0.45703 21.5309,517.54897 220.0264,1310.06067 -241.0078,1520.92187 -132.7152,60.6994 -190.3377,388.2045 -349.3672,501.582 -268.5992,191.4937 -350.49033,239.8455 -353.03706,529.875 1.30522,1.4173 2.61316,2.832 3.92383,4.2442 m 922.03183,432.6092 c 2.4784,0.2191 4.9574,0.432 7.4369,0.6388 59.3571,-149.7159 119.7724,-289.4766 247.709,-320.5703 179.9451,-43.7339 341.7231,192.2934 544.7949,172.6797 6.8176,-3.0813 13.6121,-6.2136 20.3828,-9.3965 m 200.7754,-123.0332 c 5.8852,-4.569 11.7363,-9.1818 17.5528,-13.8379 17.5817,-20.009 35.4806,-42.2849 53.7558,-67.2969 257.0673,-351.8288 -438.1692,-677.7258 -532.5722,-1088.5527 -44.8133,-195.02 206.8595,-400.8687 196.1503,-605.498 -8.7022,-166.2827 -21.2683,-529.3983 -88.1835,-843.08792 -3.7481,-1.45193 -7.5021,-2.88879 -11.2618,-4.31055"
       transform="matrix(0.26458333,0,0,0.26458333,-242.81104,-371.10632)"
       sodipodi:nodetypes="ccssccccsccccssscc"
       inkscape:label="outline" />
    <path
       id="path27219"
       style="display:inline;fill:none;stroke:none;stroke-width:0.950647;stroke-opacity:1"
       inkscape:label="text path"
       d="m -186.44582,194.22197 c 0,129.67363 51.51264,254.03617 143.205734,345.72926 91.693091,91.69311 216.055606,143.20575 345.729226,143.20575"
       sodipodi:nodetypes="csc" />
    <path
       id="ellipse27323"
       style="display:inline;fill:none;stroke:#000000"
       d="m 441.23118,-177.78486 c 52.82942,19.70381 101.3684,50.62222 142.00546,91.259286 74.45886,74.458879 116.28942,175.446789 116.28942,280.747544 0,105.30076 -41.83056,206.28867 -116.28942,280.74754 m 0,0 c -13.60609,13.6061 -28.09802,26.12269 -43.34024,37.49363 m -61.60825,37.75505 c -54.1679,26.74786 -114.24663,41.04077 -175.79901,41.04077 m 0,0 c -12.15839,0 -24.25928,-0.55768 -36.26847,-1.65887 M 21.741634,474.96952 C -52.717234,400.51064 -94.547791,299.52273 -94.547791,194.22197 c 0,-208.804207 161.184486,-379.96175 365.916111,-395.83528"
       inkscape:label="inner circle"
       sodipodi:nodetypes="cssccccccccsc" />
    <ellipse
       style="display:inline;fill:none;stroke:#000000;stroke-width:1;stroke-miterlimit:4;stroke-dasharray:none;stroke-opacity:1"
       id="ellipse30903"
       cx="302.48914"
       cy="194.22197"
       rx="514.31818"
       ry="514.31824"
       inkscape:label="outer circle" />
  </g>
</svg>
